HIERARCHY
ROOT Hips
{
	OFFSET	0.00	0.00	0.00
	CHANNELS 6 Xposition Yposition Zposition Zrotation Xrotation Yrotation
	JOINT LeftUpLeg
	{
		OFFSET	 0.126116	-0.014019	-0.065224
		CHANNELS 3 Zrotation Xrotation Yrotation
		JOINT LeftLeg
		{
			OFFSET	 0.000000	 0.000000	 0.569914
			CHANNELS 3 Zrotation Xrotation Yrotation
			JOINT LeftFoot
			{
				OFFSET	 0.000000	 0.000000	 0.544423
				CHANNELS 3 Zrotation Xrotation Yrotation
				JOINT LeftToeBase
				{
					OFFSET	 0.000000	 0.000000	 0.207117
					CHANNELS 3 Zrotation Xrotation Yrotation
					End Site
					{
						OFFSET	 0.000000	 0.000000	 0.207117
					}
				}
			}
		}
	}
	JOINT RightUpLeg
	{
		OFFSET	-0.124023	-0.008373	-0.065224
		CHANNELS 3 Zrotation Xrotation Yrotation
		JOINT RightLeg
		{
			OFFSET	 0.000000	 0.000000	 0.570047
			CHANNELS 3 Zrotation Xrotation Yrotation
			JOINT RightFoot
			{
				OFFSET	 0.000000	 0.000000	 0.544354
				CHANNELS 3 Zrotation Xrotation Yrotation
				JOINT RightToeBase
				{
					OFFSET	 0.000000	 0.000000	 0.207540
					CHANNELS 3 Zrotation Xrotation Yrotation
					End Site
					{
						OFFSET	 0.000000	 0.000000	 0.207540
					}
				}
			}
		}
	}
	JOINT Spine
	{
		OFFSET	 0.000184	-0.007763	 0.117403
		CHANNELS 3 Zrotation Xrotation Yrotation
		JOINT Spine1
		{
			OFFSET	 0.000000	 0.000000	 0.137269
			CHANNELS 3 Zrotation Xrotation Yrotation
			JOINT Spine2
			{
				OFFSET	 0.000000	 0.000000	 0.156879
				CHANNELS 3 Zrotation Xrotation Yrotation
				JOINT LeftShoulder
				{
					OFFSET	 0.080501	-0.002496	 0.160144
					CHANNELS 3 Zrotation Xrotation Yrotation
					JOINT LeftArm
					{
						OFFSET	 0.000000	 0.000000	 0.164363
						CHANNELS 3 Zrotation Xrotation Yrotation
						JOINT LeftForeArm
						{
							OFFSET	 0.000000	 0.000000	 0.364576
							CHANNELS 3 Zrotation Xrotation Yrotation
							JOINT LeftHand
							{
								OFFSET	 0.000000	 0.000000	 0.360812
								CHANNELS 3 Zrotation Xrotation Yrotation
								JOINT LeftHandIndex1
								{
									OFFSET	 0.000000	 0.000000	 0.086006
									CHANNELS 3 Zrotation Xrotation Yrotation
									JOINT LeftHandIndex2
									{
										OFFSET	 0.000000	 0.000000	 0.047236
										CHANNELS 3 Zrotation Xrotation Yrotation
										JOINT LeftHandIndex3
										{
											OFFSET	-0.004284	-0.000551	 0.038166
											CHANNELS 3 Zrotation Xrotation Yrotation
											End Site
											{
												OFFSET	-0.004284	-0.000551	 0.038166
											}
										}
									}
								}
							}
						}
					}
				}
				JOINT Neck
				{
					OFFSET	 0.000000	 0.000000	 0.176489
					CHANNELS 3 Zrotation Xrotation Yrotation
					JOINT Head
					{
						OFFSET	 0.000000	-0.001747	 0.077940
						CHANNELS 3 Zrotation Xrotation Yrotation
						End Site
						{
							OFFSET	 0.000000	-0.001747	 0.077940
						}
					}
				}
				JOINT RightShoulder
				{
					OFFSET	-0.080363	 0.000306	 0.159706
					CHANNELS 3 Zrotation Xrotation Yrotation
					JOINT RightArm
					{
						OFFSET	 0.000000	 0.000000	 0.164196
						CHANNELS 3 Zrotation Xrotation Yrotation
						JOINT RightForeArm
						{
							OFFSET	 0.000000	 0.000000	 0.365611
							CHANNELS 3 Zrotation Xrotation Yrotation
							JOINT RightHand
							{
								OFFSET	 0.000000	 0.000000	 0.360648
								CHANNELS 3 Zrotation Xrotation Yrotation
								JOINT RightHandIndex1
								{
									OFFSET	 0.000000	 0.000000	 0.069977
									CHANNELS 3 Zrotation Xrotation Yrotation
									JOINT RightHandIndex2
									{
										OFFSET	 0.000000	 0.000000	 0.052305
										CHANNELS 3 Zrotation Xrotation Yrotation
										JOINT RightHandIndex3
										{
											OFFSET	 0.009002	-0.000782	 0.042196
											CHANNELS 3 Zrotation Xrotation Yrotation
											End Site
											{
												OFFSET	 0.009002	-0.000782	 0.042196
											}
										}
									}
								}
							}
						}
					}
				}
			}
		}
	}
}
MOTION
Frames:    9
Frame Time: 0.03333334
 0.012595	 0.056162	 1.202717	 5.783578	-0.616617	-3.171602	-0.918952	-12.902650	-170.688400	 1.267833	-38.188180	 0.565794	 47.871820	 79.479910	-52.397470	-2.368404	 31.779190	-0.073654	-7.104395	-31.135700	-176.483500	 12.415070	-52.122600	 10.466940	 63.298740	 84.010150	-60.840990	 2.359025	 32.992910	 0.103049	-3.970483	 8.291746	 1.449791	-0.551739	 1.467614	 0.688276	-1.405777	-2.280421	-0.621699	-94.125940	 58.983600	 174.986000	 26.216860	 43.901820	-25.236080	-2.040546	-2.300353	-23.381740	-1.280835	-25.166900	-8.946273	-4.864335	 19.392180	-2.800743	-3.869043	 21.632240	 2.190069	-4.804098	 5.594564	 0.144099	-0.035857	-5.107235	 0.235764	-3.320421	 2.154336	 2.407317	 89.709010	 61.771050	 179.825000	-19.911500	 54.142570	 9.464608	-2.088058	-2.914155	 14.104230	-4.995977	-9.733495	 0.319079	 6.275454	 23.491470	-0.552472	 2.048944	 43.344400	-7.138244	 0.812089	 23.008270	 3.425992
 0.012272	 0.040863	 1.202642	 6.408938	 0.273048	-3.500720	-1.351093	-12.879200	-170.468900	 1.541803	-37.681850	 0.726929	 46.850940	 79.407700	-51.566000	-2.365862	 32.190910	-0.083031	-8.284924	-33.465490	-176.245600	 13.555340	-50.314510	 11.108620	 114.183700	 81.308710	-113.845600	 2.361079	 32.685230	 0.095927	-4.270042	 7.575593	 1.481165	-0.489831	 1.296262	 0.981475	-1.554746	-2.340402	-0.737643	-94.344660	 58.986400	 174.519200	 26.704050	 42.684120	-25.553420	-2.844247	-2.153907	-25.526030	-1.235027	-26.933100	-8.825617	-4.848324	 19.762100	-2.817270	-3.850752	 21.864590	 2.171483	-4.795014	 5.701565	 0.137826	-0.007351	-5.174831	 0.306964	-3.372317	 2.098467	 2.356836	 89.573420	 61.942040	 179.497100	-19.030710	 54.787670	 7.941935	-3.305470	-3.287792	 14.327160	-5.757254	-10.000480	-0.567168	 6.242500	 21.497110	-0.612464	 2.238457	 41.679540	-7.305027	 1.257795	 20.975240	 3.214748
 0.011734	 0.010696	 1.202015	 6.671786	 0.833780	-3.977393	-1.571559	-11.360360	-170.201900	 1.720156	-36.557560	 0.814585	 44.968660	 79.277890	-49.760780	-2.356121	 33.642390	-0.116638	-6.705193	-35.718990	-175.296800	 12.965620	-46.304890	 10.013470	 136.775900	 72.314420	-137.871700	 2.349936	 34.263770	 0.132905	-4.553040	 6.878313	 1.728846	-0.417218	 1.973674	 1.200932	-1.614938	-2.670237	-0.825977	-94.488780	 58.953700	 174.217600	 25.921590	 40.940960	-26.208430	-3.723122	-1.939391	-28.135150	-1.731841	-28.907690	-8.257906	-4.825142	 20.289380	-2.840465	-3.819255	 22.261310	 2.139492	-4.764368	 6.061221	 0.116601	 0.033815	-5.299278	 0.346555	-3.369856	 1.997705	 2.266758	 89.426470	 62.048630	 179.139600	-17.505520	 55.579080	 5.469281	-5.163216	-3.835280	 14.487310	-6.879230	-10.953650	-2.456245	 6.188228	 18.572400	-0.717533	 2.593957	 38.262630	-7.612928	 1.874085	 18.054750	 2.945197
 0.009168	-0.039385	 1.199797	 7.098789	 0.820798	-4.050683	-2.372365	-7.975380	-170.552700	 2.243814	-34.913360	 1.082606	 35.614520	 77.713100	-40.580260	-2.310161	 38.894460	-0.246378	-5.513816	-36.659870	-174.613400	 12.000300	-37.814940	 7.903621	 116.527000	 75.080730	-118.422900	 2.337170	 35.860080	 0.171419	-5.449836	 6.952739	 1.753699	-0.357925	 2.604201	 1.291195	-1.606600	-3.198391	-0.893201	-94.531370	 59.077630	 174.106200	 23.377730	 39.164730	-27.704350	-3.817827	-2.004152	-29.572770	-3.167952	-32.625470	-9.406137	-4.863204	 20.557340	-3.140418	-3.775944	 22.800270	 2.095505	-4.698725	 6.825544	 0.070804	 0.147643	-5.445436	 0.310389	-3.173219	 2.024249	 1.915658	 89.357020	 61.793110	 178.981200	-15.410580	 56.167880	 1.555887	-6.953869	-4.332543	 14.481450	-7.668783	-13.581080	-4.470595	 6.175600	 15.052980	-0.548035	 2.951531	 34.389420	-7.914876	 2.578924	 14.567180	 2.671252
 0.003676	-0.092029	 1.195291	 7.466420	 0.429060	-3.098597	-2.902644	-4.203766	-172.161200	 1.893771	-33.854680	 0.858643	 22.881450	 73.214740	-26.935790	-2.156034	 49.106660	-0.553620	-4.117404	-35.701850	-174.955400	 6.984142	-28.449870	 3.705677	 42.371850	 77.396550	-39.875170	 2.340837	 35.420990	 0.160707	-6.434860	 6.992813	 0.849175	-0.263582	 3.961962	 1.456688	-1.631209	-3.690331	-1.122185	-94.453160	 59.372540	 174.224700	 20.952310	 37.772290	-30.102840	-4.070317	-1.852310	-29.467870	-4.657337	-35.656030	-10.224190	-4.893660	 20.716560	-3.368270	-3.753670	 23.074420	 2.072890	-4.625904	 7.663651	 0.019475	 0.260722	-5.475684	 0.240943	-2.910362	 2.212325	 2.061016	 89.353710	 61.419120	 178.987000	-13.886790	 56.251480	-1.366978	-8.200156	-4.584174	 14.182060	-8.746719	-16.574280	-5.647155	 6.272763	 11.965890	 0.040267	 3.132844	 32.237910	-8.064445	 3.127698	 11.752070	 2.485071
-0.004677	-0.159073	 1.184388	 9.335815	-0.741855	-1.666380	-2.791680	 1.182454	-175.054900	 0.306618	-33.066430	-0.025149	 10.458520	 57.361180	-10.958510	-1.582389	 64.526160	-1.340765	-2.102121	-37.030070	-174.632700	 7.041936	-24.046950	 3.194794	 1.571290	 58.163940	 3.971697	 2.340088	 35.512080	 0.162926	-8.212096	 7.382929	-0.377810	-0.533392	 6.427039	 1.264852	-1.882092	-4.387691	-1.298899	-94.326070	 59.148050	 174.534000	 18.841950	 35.875040	-32.554320	-4.358372	-1.795832	-30.996610	-5.025600	-36.711330	-10.284850	-4.861830	 21.091530	-3.306654	-3.708144	 23.628550	 2.026684	-4.538886	 8.651631	-0.042563	 0.391984	-5.369455	 0.270988	-2.735726	 2.796848	 2.344662	 89.118640	 61.180230	 178.444400	-12.429090	 56.076000	-3.818463	-8.059334	-4.607121	 14.367730	-8.481526	-20.563630	-4.271123	 6.356058	 9.145274	 0.445637	 3.357069	 29.385930	-8.245568	 3.550297	 9.531048	 2.358756
-0.014219	-0.224989	 1.172195	 10.267910	-1.226495	-0.250656	 2.910062	 6.143904	 179.999000	 1.670252	-31.372530	 0.685996	 4.136720	 35.858750	 1.003450	-1.264071	 68.665100	-1.713891	-3.878625	-40.080960	-176.535000	 6.526320	-23.563120	 2.925194	 0.589906	 44.652320	 5.794841	 2.364017	 32.231380	 0.085493	-9.026160	 7.417703	-1.196349	-0.980435	 8.006155	 0.377060	-2.081916	-4.823932	-1.138195	-94.128390	 59.797070	 174.860700	 17.788060	 35.323060	-34.801330	-3.292615	-2.528986	-31.919570	-4.969154	-37.785970	-11.411800	-4.778882	 21.388630	-2.908444	-3.637703	 24.469920	 1.955213	-4.482644	 9.282224	-0.083044	 0.360809	-5.363451	 0.186807	-2.758946	 3.229128	 2.345306	 88.994860	 60.373390	 178.203600	-11.598090	 55.291490	-6.329750	-6.561950	-4.617918	 15.769730	-6.616886	-24.640500	-2.381386	 6.393510	 8.819027	 0.598413	 3.386894	 28.989820	-8.269310	 3.674007	 8.872969	 2.324671
-0.024350	-0.318922	 1.161113	 8.124981	-2.040334	 1.124356	 12.504140	 12.874510	 173.380200	-0.888905	-27.513820	-0.573649	 7.357993	 25.973220	 0.541066	-2.376307	 30.401040	-0.042684	-3.395529	-38.153460	-179.967600	 4.976286	-20.688260	 2.031747	 0.936773	 39.897100	 7.522973	 2.374333	 30.484320	 0.046003	-8.115311	 8.064443	-2.055833	-1.652165	 7.579771	-0.265524	-1.786644	-4.413256	-1.127735	-94.022630	 59.650610	 175.113000	 16.268590	 35.388250	-34.499070	-2.105928	-3.325225	-32.319410	-5.075599	-40.506660	-10.918630	-4.706809	 22.248410	-2.743194	-3.555112	 25.432180	 1.871460	-4.392399	 10.281260	-0.148623	 0.231419	-5.388005	 0.152004	-2.898763	 3.252220	 2.509738	 89.182950	 60.297330	 178.636300	-12.117050	 55.010430	-7.002723	-5.174736	-3.885371	 14.656640	-4.223974	-29.574330	-0.450157	 6.401272	 10.955580	 0.618495	 3.211749	 31.259120	-8.128697	 3.464848	 9.983567	 2.383062
-0.032591	-0.414983	 1.154532	 6.278746	-2.793540	 1.668431	 15.438530	 17.995590	 170.155800	-2.890703	-26.463400	-1.446592	 9.190008	 34.122520	-2.427985	-2.381048	 29.477470	-0.022298	-2.819909	-34.694190	 177.048300	 4.332603	-21.952770	 1.907371	 0.425172	 43.952480	 9.673298	 2.374322	 30.486370	 0.046045	-7.598591	 8.672916	-2.187337	-2.608865	 5.911004	-1.255289	-1.430457	-3.433131	-0.568658	-93.911780	 59.490140	 175.375700	 15.823840	 36.186650	-32.148340	-1.060163	-4.117053	-33.102630	-5.697865	-42.978760	-10.408260	-4.617022	 23.457920	-2.564133	-3.480042	 26.284890	 1.795361	-4.273145	 11.576820	-0.236411	 0.101684	-5.278471	 0.039521	-2.986568	 3.139191	 2.379109	 89.451360	 60.165850	 179.250300	-13.707710	 54.809860	-6.213301	-3.371037	-3.079851	 13.386830	-2.232764	-34.191730	 0.491843	 6.378409	 13.784420	 0.491444	 2.987070	 33.978090	-7.944399	 3.083181	 11.983440	 2.499253
